<svg xmlns="http://www.w3.org/2000/svg" width="171" height="168" viewBox="0 0 171 168" fill="none">
  <g filter="url(#filter0_d_5_67)">
    <rect x="5" width="160" height="160" rx="80" fill="white"/>
  </g>
  <path d="M50.8103 31.0245C41.2255 37.8542 33.818 47.3157 29.4956 58.2496C25.1732 69.1834 24.1238 81.1145 26.476 92.5806C28.8282 104.047 34.4797 114.55 42.738 122.802C50.9963 131.054 61.5025 136.698 72.969 139.041C84.4355 141.384 96.364 140.324 107.293 135.992C118.221 131.66 127.675 124.243 134.496 114.651C141.317 105.059 145.207 93.7086 145.692 81.9905C146.176 70.2725 143.233 58.6961 137.222 48.6801L129.443 53.3904C134.55 61.9001 137.051 71.7356 136.639 81.6913C136.228 91.6471 132.922 101.291 127.127 109.44C121.332 117.59 113.3 123.891 104.015 127.571C94.7298 131.252 84.5951 132.152 74.853 130.162C65.111 128.171 56.1848 123.377 49.1685 116.365C42.1521 109.354 37.3505 100.431 35.3521 90.6888C33.3536 80.9471 34.2452 70.8103 37.9175 61.5207C41.5899 52.2312 47.8834 44.1926 56.0268 38.39L50.8103 31.0245Z" fill="#AA55B2"/>
  <path d="M139.494 52.8313C134.295 42.3664 126.144 33.6713 116.039 27.8115C105.935 21.9517 94.3158 19.1819 82.6065 19.8416C70.8973 20.5012 59.6065 24.5617 50.118 31.5252C40.6294 38.4888 33.3554 48.053 29.1874 59.0455C25.0194 70.038 24.1385 81.9814 26.6526 93.4117C29.1668 104.842 34.9668 115.263 43.3418 123.397C51.7168 131.531 62.3029 137.025 73.8027 139.205C85.3024 141.385 97.2163 140.157 108.084 135.672L104.687 127.299C95.4538 131.11 85.3317 132.154 75.5614 130.301C65.791 128.449 56.7969 123.781 49.6814 116.871C42.566 109.96 37.6382 101.106 35.5021 91.3949C33.3661 81.6836 34.1145 71.5364 37.6557 62.197C41.1969 52.8576 47.377 44.7317 55.4385 38.8154C63.5001 32.8991 73.0929 29.4493 83.0412 28.8889C92.9895 28.3284 102.861 30.6817 111.446 35.6602C120.031 40.6387 126.957 48.0262 131.374 56.9173L139.494 52.8313Z" fill="#FF0000"/>
  <path d="M85.2211 19.7511C73.4985 19.9021 62.0462 23.47 52.2678 30.0176C42.4895 36.5652 34.8098 45.808 30.1702 56.6132C25.5305 67.4184 24.1325 79.3166 26.1473 90.8494C28.1621 102.382 33.5023 113.049 41.5134 121.542C49.5244 130.034 59.8583 135.985 71.2485 138.663C82.6387 141.341 94.5903 140.631 105.638 136.62C116.687 132.608 126.351 125.47 133.448 116.08C140.545 106.69 144.766 95.4551 145.593 83.7534L136.555 83.1891C135.853 93.131 132.267 102.676 126.237 110.654C120.207 118.632 111.996 124.697 102.609 128.105C93.2227 131.513 83.0685 132.116 73.3913 129.841C63.7141 127.565 54.9343 122.51 48.128 115.294C41.3217 108.079 36.7846 99.0164 35.0728 89.2179C33.361 79.4195 34.5488 69.3107 38.4907 60.1305C42.4326 50.9502 48.9573 43.0974 57.2651 37.5345C65.5729 31.9716 75.303 28.9403 85.2626 28.812L85.2211 19.7511Z" fill="#0CBFC8"/>
  <defs>
    <filter id="filter0_d_5_67" x="1" y="0" width="168" height="168" filterUnits="userSpaceOnUse" color-interpolation-filters="sRGB">
      <feFlood flood-opacity="0" result="BackgroundImageFix"/>
      <feColorMatrix in="SourceAlpha" type="matrix" values="0 0 0 0 0 0 0 0 0 0 0 0 0 0 0 0 0 0 127 0" result="hardAlpha"/>
      <feOffset dy="4"/>
      <feGaussianBlur stdDeviation="2"/>
      <feComposite in2="hardAlpha" operator="out"/>
      <feColorMatrix type="matrix" values="0 0 0 0 0 0 0 0 0 0 0 0 0 0 0 0 0 0 0.25 0"/>
      <feBlend mode="normal" in2="BackgroundImageFix" result="effect1_dropShadow_5_67"/>
      <feBlend mode="normal" in="SourceGraphic" in2="effect1_dropShadow_5_67" result="shape"/>
    </filter>
  </defs>
</svg>